<svg version="1.1" viewBox="0.0 0.0 217.6981627296588 211.76640419947506" fill="none" stroke="none" stroke-linecap="square" stroke-miterlimit="10" xmlns:xlink="http://www.w3.org/1999/xlink" xmlns="http://www.w3.org/2000/svg"><clipPath id="p.0"><path d="m0 0l217.69817 0l0 211.7664l-217.69817 0l0 -211.7664z" clip-rule="nonzero"/></clipPath><g clip-path="url(#p.0)"><path fill="#000000" fill-opacity="0.0" d="m0 0l217.69817 0l0 211.7664l-217.69817 0z" fill-rule="evenodd"/><path fill="#000000" fill-opacity="0.0" d="m5.036742 105.719154l0 0c0 -55.92427 46.7034 -101.25984 104.31496 -101.25984l0 0c27.666046 0 54.198975 10.668417 73.761826 29.658321c19.56285 18.989902 30.553131 44.745743 30.553131 71.601524l0 0c0 55.924263 -46.703384 101.259834 -104.31496 101.259834l0 0c-57.611557 0 -104.31496 -45.33557 -104.31496 -101.259834z" fill-rule="evenodd"/><path stroke="#ffffff" stroke-width="7.0" stroke-linejoin="round" stroke-linecap="butt" d="m5.036742 105.719154l0 0c0 -55.92427 46.7034 -101.25984 104.31496 -101.25984l0 0c27.666046 0 54.198975 10.668417 73.761826 29.658321c19.56285 18.989902 30.553131 44.745743 30.553131 71.601524l0 0c0 55.924263 -46.703384 101.259834 -104.31496 101.259834l0 0c-57.611557 0 -104.31496 -45.33557 -104.31496 -101.259834z" fill-rule="evenodd"/><path fill="#ffffff" d="m82.17319 99.12029l40.301056 22.135536l15.188049 52.23932l0 0l-52.25892 15.193756l-40.301052 -22.135544l-15.188055 -52.23932l0 0z" fill-rule="evenodd"/><path fill="#ffffff" d="m129.23618 22.981182l40.301056 22.13554l15.188065 52.23932l0 0l-52.258926 15.193748l-40.301056 -22.135536l-15.188057 -52.23932l0 0z" fill-rule="evenodd"/></g></svg>
